<?xml version="1.0" encoding="utf-8"?>
<!-- Generator: Adobe Illustrator 25.0.1, SVG Export Plug-In . SVG Version: 6.00 Build 0)  -->
<svg version="1.0" id="katman_1" xmlns="http://www.w3.org/2000/svg" xmlns:xlink="http://www.w3.org/1999/xlink" x="0px" y="0px"
	 viewBox="0 0 560 400" style="enable-background:new 0 0 560 400;" xml:space="preserve">
<style type="text/css">
	.st0{fill-rule:evenodd;clip-rule:evenodd;fill:#FFFFFF;}
	.st1{fill-rule:evenodd;clip-rule:evenodd;fill:#BF0D3E;}
	.st2{fill-rule:evenodd;clip-rule:evenodd;fill:#041E42;}
</style>
<path class="st0" d="M458.4,84.6H101.7c-9.5,0-18.5,3.7-25.3,10.3c-6.7,6.7-10.5,15.9-10.4,25.5v159.2c-0.1,9.5,3.6,18.6,10.4,25.4
	c6.7,6.7,15.8,10.5,25.3,10.5h356.7c19.6-0.1,35.6-16.2,35.6-35.8V120.1c0-19.3-15.8-35.3-35.2-35.4L458.4,84.6L458.4,84.6z"/>
<path class="st1" d="M481.5,120.3c0.1-12.6-10.1-23-22.6-23.2l-0.4,0h-99.7l57.2,95.6l5.3,0.7l3.3,4.4v4.1l3.6,0.7l3.3,4.5v3.9
	l3.7,0.7l3.8,4.1v9.1c4.5,4.1,9.6,7.4,15,10c5,1.9,5.6,10,8.7,14.3c3.8,6.3,9,8.8,7.9,12.3c-2.5,9.4-12.2,25.2-21.1,26H414v15.2
	h44.4c12.7-0.1,23.1-10.6,23.1-23.3l0-0.1L481.5,120.3"/>
<path class="st2" d="M237.6,287.8h-17.1c0-42.8,14.5-66.5,31.8-71.2c2.4-0.4,1.2-12.1-1.8-15.7h-10c-1.6,0-0.7-3-0.7-3l8.1-17.3
	l-1.1-4.7h-30l24.7-17.2c1.1-45.5,47.8-49,75.9-30.1c16.7,11.1,18,33,16.7,48.1c-0.2,1-4.3,0.3-4.3,0.3s-2.8,16.7,4.6,16.7H367
	c13.4-0.5,26.3,8.5,26.3,8.5l3.1-11.5l-71.8-93.5h-223c-6.2,0-12.1,2.4-16.5,6.7c-4.3,4.4-6.7,10.3-6.7,16.5v159.2
	c-0.1,6.2,2.3,12.1,6.7,16.4c4.4,4.4,10.3,6.8,16.5,6.9h144.7C242.9,296.8,238.8,289.8,237.6,287.8"/>
<path class="st0" d="M110.6,254c0-8.7,7.1-15.8,15.8-15.8s15.8,7.1,15.8,15.8s-7.1,15.8-15.8,15.8l-0.1,0h0
	c-8.6,0-15.7-7.1-15.7-15.6L110.6,254"/>
</svg>
